<mxfile host="app.diagrams.net" modified="2023-10-07T08:52:11.608Z" agent="Mozilla/5.0 (Windows NT 10.0; Win64; x64) AppleWebKit/537.36 (KHTML, like Gecko) Chrome/117.0.0.0 Safari/537.36 Edg/117.0.2045.47" etag="4EMSemNyBNziptmtCSZB" version="21.6.5" type="device">
  <diagram name="Page-1" id="UN-xVdEp63Jg-xvcQxoH">
    <mxGraphModel dx="2066" dy="793" grid="1" gridSize="10" guides="1" tooltips="1" connect="1" arrows="1" fold="1" page="1" pageScale="1" pageWidth="3300" pageHeight="4681" math="0" shadow="0">
      <root>
        <mxCell id="0" />
        <mxCell id="1" parent="0" />
        <mxCell id="HV6iaBlOZlSdFYTbmM4B-1" value="" style="image;aspect=fixed;html=1;points=[];align=center;fontSize=12;image=img/lib/azure2/databases/Azure_Database_PostgreSQL_Server_Group.svg;" vertex="1" parent="1">
          <mxGeometry x="360" y="310" width="60" height="68" as="geometry" />
        </mxCell>
        <mxCell id="HV6iaBlOZlSdFYTbmM4B-4" value="" style="endArrow=classic;html=1;rounded=0;exitX=1.033;exitY=0.485;exitDx=0;exitDy=0;exitPerimeter=0;entryX=0;entryY=0.5;entryDx=0;entryDy=0;" edge="1" parent="1" source="HV6iaBlOZlSdFYTbmM4B-1" target="HV6iaBlOZlSdFYTbmM4B-3">
          <mxGeometry width="50" height="50" relative="1" as="geometry">
            <mxPoint x="1020" y="410" as="sourcePoint" />
            <mxPoint x="1070" y="360" as="targetPoint" />
          </mxGeometry>
        </mxCell>
        <mxCell id="HV6iaBlOZlSdFYTbmM4B-8" value="" style="rounded=0;whiteSpace=wrap;html=1;" vertex="1" parent="1">
          <mxGeometry x="470" y="370" width="460" height="420" as="geometry" />
        </mxCell>
        <mxCell id="HV6iaBlOZlSdFYTbmM4B-3" value="" style="shape=image;verticalLabelPosition=bottom;labelBackgroundColor=default;verticalAlign=top;aspect=fixed;imageAspect=0;image=https://techvccloud.mediacdn.vn/280518386289090560/2022/1/14/nginx-111-16420979055161428365421-0-40-630-1161-crop-16420979133121451145050.png;" vertex="1" parent="1">
          <mxGeometry x="600" y="290.33" width="191" height="107.34" as="geometry" />
        </mxCell>
        <mxCell id="HV6iaBlOZlSdFYTbmM4B-5" value="" style="shape=image;verticalLabelPosition=bottom;labelBackgroundColor=default;verticalAlign=top;aspect=fixed;imageAspect=0;image=data:image/png,iVBORw0KGgoAAAANSUhEUgAAAQMAAADDCAMAAACxkIT5AAABJlBMVEX///+LMCLfUkNGRkiHLiBDQ0W9RDZeHxfxr6m4QjTQTD2KLR/fT0D69/aTOivjZllfX2A1NTfXT0Dw8PDPz8+IJhQ9PT/06ejkdmx3d3hxcXLGxsZnZ2iCgoLxRiHb29tSUlOnp6feSjnZ2dnm5uYAAACwsLCgoKCuPjC8vLyKiosPDgwvLzKZmZqHIw/dRTPwNgD54+FVGxSZNii+ko34urWEGQDxPhHdPivupJ3smpPiXlF2KB1rJBrrkYi+cmnizMnJcWj2yMSWRTnJpJ/jbGHyvrruVT17YWC8jYfwbFn5TSyncWw0QEO3hH7osa30h3nxUjb1kofToJr729l+CQC2NybzeWmjYlnawLzmfnUlJCQaGRikU0nUjIXinZbCZFqcVk0VJK5UAAAOHklEQVR4nO2deVvbOhbGHRxRSmKIcaKQBXCWm5DcsHQBytqUQnunl+F2OqUXypROv/+XGMmSvCd2YtkxjN5/eLIQWz8fHR0d2UeSJCQkJCQkJCQkJCQkJCQkJCQkJJSkyhfvzpVZn8RMpVy83//2ZvU87sNs9HrFdswHmU7li8x2Ljs/l28ux2kL7T6AWIVa6gwO2cB2LpNBDOYQhfhsoaFDIGMBWNHiOshUKl/k9hEBygBRiKlHtKuUABaspwhC+bVhAzYG2BYu97gb67AAZZvgGu8DTCvl9RIjYGOAKOxcfuB7pPOPfwDZAaHG9wBTqvyPG4uAgwGmkP/A0Rb2dg8+FQwIkPmEOr9fn1plZAMZuxwMjB7BjcLe+vr6wTvccrnfJSzkwcw9Qvl1yW4DPgywLSzvcTnYh13EYP3Pq3/CwoYkaQSCWuTy29PrOuMm4MMA28IxB7+wcLBu6OMffePa9w3vqM7YIZT3PQR8GczNNS8jH2yPIjhY/4u8sQZSwaDkReDPIL8a9VgLuwTB7ucX5I0OGRgGMw6ZE2RwSKzg4CN1LUqXDQyRWxFNyTEgVnCw+7lMXmsVlcYHW9GbEUmJMTgyEOx+YtF3S6fRItBnPXtMioHREQ7Wz1ic0dNZsKj2ODQjkhJicLhrGMFX9roxoAjA7BEkxOAMWcHBvxaYEWhrbNYE9BRMFhJhgK1g99ML9rJtThyhvsGlFdGUBIMvu2hAtDIRPZm5AthPRRYpAQZfDg7Wv5TNlw3AXAFspAJBAgy+7O7ajEDpq8wVyLP3hkRxM1A+7/55aF1umysoJOoKyv/+UB75GQ8G5Yu/Rln1Z9uAKEkbFoJEc6nD65tvO2+Oz86/+p1nVAbl4cXt/s1+s7ngh1n5+8Ced6hBMypocGlbOJWvM6Xsczz/b84tf9974eYQgYGiDV/fvs9to1/ILuaby4ceCsqnv1/YXnZMb6gn6AqGV9ulXAYzwI3IN3d2js8WHPYwLYPy3evb3P52jmQfsouY8tyRk0L5syP51GUIoN6Kr8kuDW/3jRZSBqQlzWYzf7nwlV2fKRgoL4bXS9vbmK75D4v0t4/s1/3cjkTZYgMCrCbnCpQl2j47Awpi5/j7obGWNimD8t31bWa/5E5ALtIvjU429U1v2E/QGypLbMnEzYB1jOXD83OfVNoIBpfDi+ulfdR+77+YDPLLAQgA7CZHIIAB6xgrPgj8GcytZLfd1z80gw5DAIg3VFrJhIjBDHDDwjNYzPoDCMGgRacIYECnicqgksjQkCIGNGECzAFBUYEKu/E7hvQwoD0ByGZ4rKhGuNyJu0dMzSB7knm+6P3q1Aw0YgYAWGGBwQCFi4WYI4VpGGSzJ6fPDJ0iDit8GPRIZABtHkBR2TAR70g5MQPUfgoA6+XLZyeZTRuGqRlUiRlUbIbPGOAOEedq4yQMrOvv0EsEIrM5P5c3vjolgzbpCgP7XNligEwhxvWFsAxGtN9mD6fZTdQvpmVQJGagO87NYoDvRImtP4RjcGJc7AChr5xmNkciGM+gB72rSQ4GMqzHtcwSigHS/OZS9vTZOBCnpycno40giEGDMOiMZoBGzZicQlgGWIuL86+yuEd4SJyeZLNj2x+JgZlRkONZZ5iEgXH++ZX5TUSC9Y2gix+WAYmQnHMlGh8Uiiy5BuK5CWFSBlQryCROwlz8sAxqkLTXj4Gk9dkCPIhjAjElA6wx7m9yBht0bLQ7f8ZAwWbCIMRgCVEYTGIEQQykOrkVz34vpo2BuQoPYrg3KzUMurSNnliZMJDaBfe08ukxaBPvD2TPnIkwkLQKpaTzDpZSw0Daok0EprE7GUgKXYznnm5NDwONhgFAZkGCi4GkUEuA/bQwyHNmINUYBLXS8mVgWQLfBajpGKyg+OD5881Xr17h2VRIFoE51YaZWZe32n4MJIWMHjLk6hcnZIDbvonajls+jyfLKH6ep6+DWITPraOpstxHs2gPA3bzMijwdAnhGKwsorZu0qtOm+rKJ2IWxDCmZyB1zWdXAISFBvQwkNok+QwrSTNY8TN535zqSoS8MlbP9gAPoAOFI35GXoP0Bo5BczgGfg0btcYSiYHUqqvOB1jcDKjXADK/bEJ6cuvshDo6dEKQqz17e+ngACvcUu6pY4AfaxxAhy0AVV7r2W7VIZ/y6w0pZIC8/5bu7BEAwEHFtAbiEoDKa2xIJQN0rTt12WkMyEXqaz3SbNobeIWLKWWA1OrWXX4BoE7RxxjYAMlpGp1eBqipv6lu94jCBrlS00jmjdfzfulm8Pvv9yhWdHlIoBYqXIOEtDNAUrfqqhsD/atzGR/Tz+A3VVM2ugW3izSkdoJ/5YkwwOdZ3NIHHgx85k5pZqCo8P4/lAHWxlbV1SlkLjdvpZsBHgjubbGQVtxC79gwAJmDR0g7A6SCs5k1FERaGCAHj5B+Bu55I/YN/QJky28cPMJjYOBj7lqtrxJr4LAE+UgZYCFrQBg4BIuPmAG2hjUdgsj51UfNAGPorUW+U+mxM8AYBIPoEgwEA+M4goFgIAkGxnEEA8FACr3e6LOwHs96o+Pc0sRgznbXwUgGeHn++Wa0tXfXuaWKAbnEK6SVRjPxPRjm2/PklpSAuzCeAgMLBmHxnBIJcQvK02NAtZnN8Ltf2ffcHgWDiSQYCAaCgWDwdBnk85s+NQ7+XxjkkZr548t3P5ZKpVwuNImnwgA1f+54efX70eEC1s+Htz9+LGX8ql48RQb44uPKQWe0+ZZ+Pjy8fb+9XQoi8cgZ5JHpr54dLewtjNLe4cPbW9Q5xmB43Azy7zwX318/H/47GsLjZrCSy/x4+zDGCgwdnn1fzj/Z/MFKJoPd//u3P3+ObP/qseEwn24eiXwllystYXvwtn95rpk3yh88eQYGhlyp9P7tA7OHo7PVuSZrfzwMYOw7L0yTU82VctgeDs8usf07v8r9fiQQf9WwKfPK2B6+Nd0AuDMAaiGBssKpzq0P5ETqpqWZgVZPpoRiIAOjdl54Bis309eMm5XGM0BThOPVsw9fw9cOXC1fXP3KeWonpptBaUQNSXz93ywfnePiqhPWkCwP765KN2YNUQ+D5vGsW+2Sby3RfPMNq6GJNU09VVJL1T6XZLVE845aoqmQMrzNlSwGeIZ8vHr4tWyLzqasKauU765/LZmbGpGassdnqSNgaHh1Q2sL4xrLe1/d9X+j1Fcu313cbu8blXsXkQ14awunRsOr0reducuzPd+LFLXGtDK8uHpf2m8ep5gA1vDh3FNbmolHrfHy8OJnOntBOCW5P1NaJRgIBliCwWNkoCi8k09TMVA6DUOeB44U8n7DfEi1R16zx9rbXeOla86odZ2/Rv/Ju0+HVutWdHUwgPV+h+MuHlMx0AqqsTuz54HcBnlfrbJLVTfeGLAnuIsD43PX7mRt411VZ68r5J/cKZZ2XweQltyCUC70eGWhpmNQZwXOnD+msZLiZiGLqnOjziKtMuws+9J2FRf03dVR2XI/HK3WOT0cH4mBe8s9tv1WEANXfYMwDFqy+zl5XL2dz/5O0RjIjieOaua7QQycDQzBwNrXyiE+lVOiMrBlxxU9PAPHhoXBDGr24koQ2p4DrXKAEJGBvb7ZlmmtwQxkWLdXgglg0DL384H1tUan06+aPYNH1ZDwe9r6MwCy+di2rQRUMAO7KwlioFSZ+6nXyNGU1pqJJXqxCIXmmoIY5JvNQz8GVonQ+mQM5IF58kEMuszV2tPxNbanA4jeG2iuKYCBM0dkZyDTUrAdm98OxcCqHBrAQKG/7HoGfIO6ST7VBu9ub0rjGOSbO84smZOBbrxld9yhGFiNDmDQGVFessa2i+cTK+G9rEYy8Ow9ZcVIVs8moQHQQzGgRU9Yq8YzoN7Ap9YqrUfIqxyvMvxVKvky8MsVEwagwOqktsxrQiv7jGcA6rqj+M14Bm36Xe/a3Aa0rgEfDS3vaDJw77zlZKBrpJAPqNLdRmBnQw3BAPaLzJ+1ghnUaHztU0yPHt5TRSESBWoLjAHyhL6ZUsZAaVN3RUtg1qWQDKQO7RSGgY9n0IUjez39iG9F4rtfhnckDJpvRq0XmAzM8tGsT4RlIFVtjm48A9LrwZrkFa3kznuT7OHVfimHGOA1o5HZcosBqwlsnDQapEIzYG5V7QYxIAbvGw8W42EgKS9uM6X55vG4VTOLAfNLrA2hGZjxLyimj4GEbeHb+BUTGwMriDO20gjPwNy4Ste0MH3Bb4bYi8MfMAWVZrAxkGxGPREDNrzDtfF20Bjd0C2f6rxJycGgaC+LPAkDM9JaA+MY0LHRJxJS2NAcVzvHycFAahh7r5HgfxIGrHoqG1VGxUi0r3nLLrPMHJfqcpPKyUBC0QGL1SZiIPXsyaGRsTKtqOjduoeVWpzJnvEuBkVglrSajIHUV4MZsO3ePN2+507gJioXA6l7z6bBEzIwsyPjGEhsbubcFpv6CW5TpgnlZqCZU/gJGbAtOsYzYKkJx3ZeDeZGZuIRvQwsTcrAykWPyyeyYBSg2RbZwaVXZ/5Un4k34MpA6qrBDNpmxhrKer1SLehmZplngfqJxJOBVIeBDKzEMp5vY7EXaqI7JdvFlYHGkqPj1lg2CtbczBIAMwkNDHFlQGfAAWttWsVbdRbqsxkSyAlxZUACzaA1V6mnqwDYCSSxN/JoaYWBiiR7z6F1jz8YWGvvxhfvTQbkY3c+pGJ8S3e+vPc83tCr6CqE2B1AVa7OlABSq2jI+4FGPjDHqw3yWhvxsePt1oh/sqlda6xV6/XKVm9jJsGhkJCQkJCQkJCQkJCQkJCQkJCQkNDT0v8ABHT4CsM0bqIAAAAASUVORK5CYII=;" vertex="1" parent="1">
          <mxGeometry x="490" y="430" width="119" height="89.59" as="geometry" />
        </mxCell>
        <mxCell id="HV6iaBlOZlSdFYTbmM4B-6" value="" style="shape=image;verticalLabelPosition=bottom;labelBackgroundColor=default;verticalAlign=top;aspect=fixed;imageAspect=0;image=data:image/png,iVBORw0KGgoAAAANSUhEUgAAAQMAAADDCAMAAACxkIT5AAABJlBMVEX///+LMCLfUkNGRkiHLiBDQ0W9RDZeHxfxr6m4QjTQTD2KLR/fT0D69/aTOivjZllfX2A1NTfXT0Dw8PDPz8+IJhQ9PT/06ejkdmx3d3hxcXLGxsZnZ2iCgoLxRiHb29tSUlOnp6feSjnZ2dnm5uYAAACwsLCgoKCuPjC8vLyKiosPDgwvLzKZmZqHIw/dRTPwNgD54+FVGxSZNii+ko34urWEGQDxPhHdPivupJ3smpPiXlF2KB1rJBrrkYi+cmnizMnJcWj2yMSWRTnJpJ/jbGHyvrruVT17YWC8jYfwbFn5TSyncWw0QEO3hH7osa30h3nxUjb1kofToJr729l+CQC2NybzeWmjYlnawLzmfnUlJCQaGRikU0nUjIXinZbCZFqcVk0VJK5UAAAOHklEQVR4nO2deVvbOhbGHRxRSmKIcaKQBXCWm5DcsHQBytqUQnunl+F2OqUXypROv/+XGMmSvCd2YtkxjN5/eLIQWz8fHR0d2UeSJCQkJCQkJCQkJCQkJCQkJCQkJJSkyhfvzpVZn8RMpVy83//2ZvU87sNs9HrFdswHmU7li8x2Ljs/l28ux2kL7T6AWIVa6gwO2cB2LpNBDOYQhfhsoaFDIGMBWNHiOshUKl/k9hEBygBRiKlHtKuUABaspwhC+bVhAzYG2BYu97gb67AAZZvgGu8DTCvl9RIjYGOAKOxcfuB7pPOPfwDZAaHG9wBTqvyPG4uAgwGmkP/A0Rb2dg8+FQwIkPmEOr9fn1plZAMZuxwMjB7BjcLe+vr6wTvccrnfJSzkwcw9Qvl1yW4DPgywLSzvcTnYh13EYP3Pq3/CwoYkaQSCWuTy29PrOuMm4MMA28IxB7+wcLBu6OMffePa9w3vqM7YIZT3PQR8GczNNS8jH2yPIjhY/4u8sQZSwaDkReDPIL8a9VgLuwTB7ucX5I0OGRgGMw6ZE2RwSKzg4CN1LUqXDQyRWxFNyTEgVnCw+7lMXmsVlcYHW9GbEUmJMTgyEOx+YtF3S6fRItBnPXtMioHREQ7Wz1ic0dNZsKj2ODQjkhJicLhrGMFX9roxoAjA7BEkxOAMWcHBvxaYEWhrbNYE9BRMFhJhgK1g99ML9rJtThyhvsGlFdGUBIMvu2hAtDIRPZm5AthPRRYpAQZfDg7Wv5TNlw3AXAFspAJBAgy+7O7ajEDpq8wVyLP3hkRxM1A+7/55aF1umysoJOoKyv/+UB75GQ8G5Yu/Rln1Z9uAKEkbFoJEc6nD65tvO2+Oz86/+p1nVAbl4cXt/s1+s7ngh1n5+8Ced6hBMypocGlbOJWvM6Xsczz/b84tf9974eYQgYGiDV/fvs9to1/ILuaby4ceCsqnv1/YXnZMb6gn6AqGV9ulXAYzwI3IN3d2js8WHPYwLYPy3evb3P52jmQfsouY8tyRk0L5syP51GUIoN6Kr8kuDW/3jRZSBqQlzWYzf7nwlV2fKRgoL4bXS9vbmK75D4v0t4/s1/3cjkTZYgMCrCbnCpQl2j47Awpi5/j7obGWNimD8t31bWa/5E5ALtIvjU429U1v2E/QGypLbMnEzYB1jOXD83OfVNoIBpfDi+ulfdR+77+YDPLLAQgA7CZHIIAB6xgrPgj8GcytZLfd1z80gw5DAIg3VFrJhIjBDHDDwjNYzPoDCMGgRacIYECnicqgksjQkCIGNGECzAFBUYEKu/E7hvQwoD0ByGZ4rKhGuNyJu0dMzSB7knm+6P3q1Aw0YgYAWGGBwQCFi4WYI4VpGGSzJ6fPDJ0iDit8GPRIZABtHkBR2TAR70g5MQPUfgoA6+XLZyeZTRuGqRlUiRlUbIbPGOAOEedq4yQMrOvv0EsEIrM5P5c3vjolgzbpCgP7XNligEwhxvWFsAxGtN9mD6fZTdQvpmVQJGagO87NYoDvRImtP4RjcGJc7AChr5xmNkciGM+gB72rSQ4GMqzHtcwSigHS/OZS9vTZOBCnpycno40giEGDMOiMZoBGzZicQlgGWIuL86+yuEd4SJyeZLNj2x+JgZlRkONZZ5iEgXH++ZX5TUSC9Y2gix+WAYmQnHMlGh8Uiiy5BuK5CWFSBlQryCROwlz8sAxqkLTXj4Gk9dkCPIhjAjElA6wx7m9yBht0bLQ7f8ZAwWbCIMRgCVEYTGIEQQykOrkVz34vpo2BuQoPYrg3KzUMurSNnliZMJDaBfe08ukxaBPvD2TPnIkwkLQKpaTzDpZSw0Daok0EprE7GUgKXYznnm5NDwONhgFAZkGCi4GkUEuA/bQwyHNmINUYBLXS8mVgWQLfBajpGKyg+OD5881Xr17h2VRIFoE51YaZWZe32n4MJIWMHjLk6hcnZIDbvonajls+jyfLKH6ep6+DWITPraOpstxHs2gPA3bzMijwdAnhGKwsorZu0qtOm+rKJ2IWxDCmZyB1zWdXAISFBvQwkNok+QwrSTNY8TN535zqSoS8MlbP9gAPoAOFI35GXoP0Bo5BczgGfg0btcYSiYHUqqvOB1jcDKjXADK/bEJ6cuvshDo6dEKQqz17e+ngACvcUu6pY4AfaxxAhy0AVV7r2W7VIZ/y6w0pZIC8/5bu7BEAwEHFtAbiEoDKa2xIJQN0rTt12WkMyEXqaz3SbNobeIWLKWWA1OrWXX4BoE7RxxjYAMlpGp1eBqipv6lu94jCBrlS00jmjdfzfulm8Pvv9yhWdHlIoBYqXIOEtDNAUrfqqhsD/atzGR/Tz+A3VVM2ugW3izSkdoJ/5YkwwOdZ3NIHHgx85k5pZqCo8P4/lAHWxlbV1SlkLjdvpZsBHgjubbGQVtxC79gwAJmDR0g7A6SCs5k1FERaGCAHj5B+Bu55I/YN/QJky28cPMJjYOBj7lqtrxJr4LAE+UgZYCFrQBg4BIuPmAG2hjUdgsj51UfNAGPorUW+U+mxM8AYBIPoEgwEA+M4goFgIAkGxnEEA8FACr3e6LOwHs96o+Pc0sRgznbXwUgGeHn++Wa0tXfXuaWKAbnEK6SVRjPxPRjm2/PklpSAuzCeAgMLBmHxnBIJcQvK02NAtZnN8Ltf2ffcHgWDiSQYCAaCgWDwdBnk85s+NQ7+XxjkkZr548t3P5ZKpVwuNImnwgA1f+54efX70eEC1s+Htz9+LGX8ql48RQb44uPKQWe0+ZZ+Pjy8fb+9XQoi8cgZ5JHpr54dLewtjNLe4cPbW9Q5xmB43Azy7zwX318/H/47GsLjZrCSy/x4+zDGCgwdnn1fzj/Z/MFKJoPd//u3P3+ObP/qseEwn24eiXwllystYXvwtn95rpk3yh88eQYGhlyp9P7tA7OHo7PVuSZrfzwMYOw7L0yTU82VctgeDs8usf07v8r9fiQQf9WwKfPK2B6+Nd0AuDMAaiGBssKpzq0P5ETqpqWZgVZPpoRiIAOjdl54Bis309eMm5XGM0BThOPVsw9fw9cOXC1fXP3KeWonpptBaUQNSXz93ywfnePiqhPWkCwP765KN2YNUQ+D5vGsW+2Sby3RfPMNq6GJNU09VVJL1T6XZLVE845aoqmQMrzNlSwGeIZ8vHr4tWyLzqasKauU765/LZmbGpGassdnqSNgaHh1Q2sL4xrLe1/d9X+j1Fcu313cbu8blXsXkQ14awunRsOr0reducuzPd+LFLXGtDK8uHpf2m8ep5gA1vDh3FNbmolHrfHy8OJnOntBOCW5P1NaJRgIBliCwWNkoCi8k09TMVA6DUOeB44U8n7DfEi1R16zx9rbXeOla86odZ2/Rv/Ju0+HVutWdHUwgPV+h+MuHlMx0AqqsTuz54HcBnlfrbJLVTfeGLAnuIsD43PX7mRt411VZ68r5J/cKZZ2XweQltyCUC70eGWhpmNQZwXOnD+msZLiZiGLqnOjziKtMuws+9J2FRf03dVR2XI/HK3WOT0cH4mBe8s9tv1WEANXfYMwDFqy+zl5XL2dz/5O0RjIjieOaua7QQycDQzBwNrXyiE+lVOiMrBlxxU9PAPHhoXBDGr24koQ2p4DrXKAEJGBvb7ZlmmtwQxkWLdXgglg0DL384H1tUan06+aPYNH1ZDwe9r6MwCy+di2rQRUMAO7KwlioFSZ+6nXyNGU1pqJJXqxCIXmmoIY5JvNQz8GVonQ+mQM5IF58kEMuszV2tPxNbanA4jeG2iuKYCBM0dkZyDTUrAdm98OxcCqHBrAQKG/7HoGfIO6ST7VBu9ub0rjGOSbO84smZOBbrxld9yhGFiNDmDQGVFessa2i+cTK+G9rEYy8Ow9ZcVIVs8moQHQQzGgRU9Yq8YzoN7Ap9YqrUfIqxyvMvxVKvky8MsVEwagwOqktsxrQiv7jGcA6rqj+M14Bm36Xe/a3Aa0rgEfDS3vaDJw77zlZKBrpJAPqNLdRmBnQw3BAPaLzJ+1ghnUaHztU0yPHt5TRSESBWoLjAHyhL6ZUsZAaVN3RUtg1qWQDKQO7RSGgY9n0IUjez39iG9F4rtfhnckDJpvRq0XmAzM8tGsT4RlIFVtjm48A9LrwZrkFa3kznuT7OHVfimHGOA1o5HZcosBqwlsnDQapEIzYG5V7QYxIAbvGw8W42EgKS9uM6X55vG4VTOLAfNLrA2hGZjxLyimj4GEbeHb+BUTGwMriDO20gjPwNy4Ste0MH3Bb4bYi8MfMAWVZrAxkGxGPREDNrzDtfF20Bjd0C2f6rxJycGgaC+LPAkDM9JaA+MY0LHRJxJS2NAcVzvHycFAahh7r5HgfxIGrHoqG1VGxUi0r3nLLrPMHJfqcpPKyUBC0QGL1SZiIPXsyaGRsTKtqOjduoeVWpzJnvEuBkVglrSajIHUV4MZsO3ePN2+507gJioXA6l7z6bBEzIwsyPjGEhsbubcFpv6CW5TpgnlZqCZU/gJGbAtOsYzYKkJx3ZeDeZGZuIRvQwsTcrAykWPyyeyYBSg2RbZwaVXZ/5Un4k34MpA6qrBDNpmxhrKer1SLehmZplngfqJxJOBVIeBDKzEMp5vY7EXaqI7JdvFlYHGkqPj1lg2CtbczBIAMwkNDHFlQGfAAWttWsVbdRbqsxkSyAlxZUACzaA1V6mnqwDYCSSxN/JoaYWBiiR7z6F1jz8YWGvvxhfvTQbkY3c+pGJ8S3e+vPc83tCr6CqE2B1AVa7OlABSq2jI+4FGPjDHqw3yWhvxsePt1oh/sqlda6xV6/XKVm9jJsGhkJCQkJCQkJCQkJCQkJCQkJCQkNDT0v8ABHT4CsM0bqIAAAAASUVORK5CYII=;" vertex="1" parent="1">
          <mxGeometry x="791" y="430" width="119" height="89.59" as="geometry" />
        </mxCell>
        <mxCell id="HV6iaBlOZlSdFYTbmM4B-7" value="" style="shape=image;verticalLabelPosition=bottom;labelBackgroundColor=default;verticalAlign=top;aspect=fixed;imageAspect=0;image=data:image/png,iVBORw0KGgoAAAANSUhEUgAAAQMAAADDCAMAAACxkIT5AAABJlBMVEX///+LMCLfUkNGRkiHLiBDQ0W9RDZeHxfxr6m4QjTQTD2KLR/fT0D69/aTOivjZllfX2A1NTfXT0Dw8PDPz8+IJhQ9PT/06ejkdmx3d3hxcXLGxsZnZ2iCgoLxRiHb29tSUlOnp6feSjnZ2dnm5uYAAACwsLCgoKCuPjC8vLyKiosPDgwvLzKZmZqHIw/dRTPwNgD54+FVGxSZNii+ko34urWEGQDxPhHdPivupJ3smpPiXlF2KB1rJBrrkYi+cmnizMnJcWj2yMSWRTnJpJ/jbGHyvrruVT17YWC8jYfwbFn5TSyncWw0QEO3hH7osa30h3nxUjb1kofToJr729l+CQC2NybzeWmjYlnawLzmfnUlJCQaGRikU0nUjIXinZbCZFqcVk0VJK5UAAAOHklEQVR4nO2deVvbOhbGHRxRSmKIcaKQBXCWm5DcsHQBytqUQnunl+F2OqUXypROv/+XGMmSvCd2YtkxjN5/eLIQWz8fHR0d2UeSJCQkJCQkJCQkJCQkJCQkJCQkJJSkyhfvzpVZn8RMpVy83//2ZvU87sNs9HrFdswHmU7li8x2Ljs/l28ux2kL7T6AWIVa6gwO2cB2LpNBDOYQhfhsoaFDIGMBWNHiOshUKl/k9hEBygBRiKlHtKuUABaspwhC+bVhAzYG2BYu97gb67AAZZvgGu8DTCvl9RIjYGOAKOxcfuB7pPOPfwDZAaHG9wBTqvyPG4uAgwGmkP/A0Rb2dg8+FQwIkPmEOr9fn1plZAMZuxwMjB7BjcLe+vr6wTvccrnfJSzkwcw9Qvl1yW4DPgywLSzvcTnYh13EYP3Pq3/CwoYkaQSCWuTy29PrOuMm4MMA28IxB7+wcLBu6OMffePa9w3vqM7YIZT3PQR8GczNNS8jH2yPIjhY/4u8sQZSwaDkReDPIL8a9VgLuwTB7ucX5I0OGRgGMw6ZE2RwSKzg4CN1LUqXDQyRWxFNyTEgVnCw+7lMXmsVlcYHW9GbEUmJMTgyEOx+YtF3S6fRItBnPXtMioHREQ7Wz1ic0dNZsKj2ODQjkhJicLhrGMFX9roxoAjA7BEkxOAMWcHBvxaYEWhrbNYE9BRMFhJhgK1g99ML9rJtThyhvsGlFdGUBIMvu2hAtDIRPZm5AthPRRYpAQZfDg7Wv5TNlw3AXAFspAJBAgy+7O7ajEDpq8wVyLP3hkRxM1A+7/55aF1umysoJOoKyv/+UB75GQ8G5Yu/Rln1Z9uAKEkbFoJEc6nD65tvO2+Oz86/+p1nVAbl4cXt/s1+s7ngh1n5+8Ced6hBMypocGlbOJWvM6Xsczz/b84tf9974eYQgYGiDV/fvs9to1/ILuaby4ceCsqnv1/YXnZMb6gn6AqGV9ulXAYzwI3IN3d2js8WHPYwLYPy3evb3P52jmQfsouY8tyRk0L5syP51GUIoN6Kr8kuDW/3jRZSBqQlzWYzf7nwlV2fKRgoL4bXS9vbmK75D4v0t4/s1/3cjkTZYgMCrCbnCpQl2j47Awpi5/j7obGWNimD8t31bWa/5E5ALtIvjU429U1v2E/QGypLbMnEzYB1jOXD83OfVNoIBpfDi+ulfdR+77+YDPLLAQgA7CZHIIAB6xgrPgj8GcytZLfd1z80gw5DAIg3VFrJhIjBDHDDwjNYzPoDCMGgRacIYECnicqgksjQkCIGNGECzAFBUYEKu/E7hvQwoD0ByGZ4rKhGuNyJu0dMzSB7knm+6P3q1Aw0YgYAWGGBwQCFi4WYI4VpGGSzJ6fPDJ0iDit8GPRIZABtHkBR2TAR70g5MQPUfgoA6+XLZyeZTRuGqRlUiRlUbIbPGOAOEedq4yQMrOvv0EsEIrM5P5c3vjolgzbpCgP7XNligEwhxvWFsAxGtN9mD6fZTdQvpmVQJGagO87NYoDvRImtP4RjcGJc7AChr5xmNkciGM+gB72rSQ4GMqzHtcwSigHS/OZS9vTZOBCnpycno40giEGDMOiMZoBGzZicQlgGWIuL86+yuEd4SJyeZLNj2x+JgZlRkONZZ5iEgXH++ZX5TUSC9Y2gix+WAYmQnHMlGh8Uiiy5BuK5CWFSBlQryCROwlz8sAxqkLTXj4Gk9dkCPIhjAjElA6wx7m9yBht0bLQ7f8ZAwWbCIMRgCVEYTGIEQQykOrkVz34vpo2BuQoPYrg3KzUMurSNnliZMJDaBfe08ukxaBPvD2TPnIkwkLQKpaTzDpZSw0Daok0EprE7GUgKXYznnm5NDwONhgFAZkGCi4GkUEuA/bQwyHNmINUYBLXS8mVgWQLfBajpGKyg+OD5881Xr17h2VRIFoE51YaZWZe32n4MJIWMHjLk6hcnZIDbvonajls+jyfLKH6ep6+DWITPraOpstxHs2gPA3bzMijwdAnhGKwsorZu0qtOm+rKJ2IWxDCmZyB1zWdXAISFBvQwkNok+QwrSTNY8TN535zqSoS8MlbP9gAPoAOFI35GXoP0Bo5BczgGfg0btcYSiYHUqqvOB1jcDKjXADK/bEJ6cuvshDo6dEKQqz17e+ngACvcUu6pY4AfaxxAhy0AVV7r2W7VIZ/y6w0pZIC8/5bu7BEAwEHFtAbiEoDKa2xIJQN0rTt12WkMyEXqaz3SbNobeIWLKWWA1OrWXX4BoE7RxxjYAMlpGp1eBqipv6lu94jCBrlS00jmjdfzfulm8Pvv9yhWdHlIoBYqXIOEtDNAUrfqqhsD/atzGR/Tz+A3VVM2ugW3izSkdoJ/5YkwwOdZ3NIHHgx85k5pZqCo8P4/lAHWxlbV1SlkLjdvpZsBHgjubbGQVtxC79gwAJmDR0g7A6SCs5k1FERaGCAHj5B+Bu55I/YN/QJky28cPMJjYOBj7lqtrxJr4LAE+UgZYCFrQBg4BIuPmAG2hjUdgsj51UfNAGPorUW+U+mxM8AYBIPoEgwEA+M4goFgIAkGxnEEA8FACr3e6LOwHs96o+Pc0sRgznbXwUgGeHn++Wa0tXfXuaWKAbnEK6SVRjPxPRjm2/PklpSAuzCeAgMLBmHxnBIJcQvK02NAtZnN8Ltf2ffcHgWDiSQYCAaCgWDwdBnk85s+NQ7+XxjkkZr548t3P5ZKpVwuNImnwgA1f+54efX70eEC1s+Htz9+LGX8ql48RQb44uPKQWe0+ZZ+Pjy8fb+9XQoi8cgZ5JHpr54dLewtjNLe4cPbW9Q5xmB43Azy7zwX318/H/47GsLjZrCSy/x4+zDGCgwdnn1fzj/Z/MFKJoPd//u3P3+ObP/qseEwn24eiXwllystYXvwtn95rpk3yh88eQYGhlyp9P7tA7OHo7PVuSZrfzwMYOw7L0yTU82VctgeDs8usf07v8r9fiQQf9WwKfPK2B6+Nd0AuDMAaiGBssKpzq0P5ETqpqWZgVZPpoRiIAOjdl54Bis309eMm5XGM0BThOPVsw9fw9cOXC1fXP3KeWonpptBaUQNSXz93ywfnePiqhPWkCwP765KN2YNUQ+D5vGsW+2Sby3RfPMNq6GJNU09VVJL1T6XZLVE845aoqmQMrzNlSwGeIZ8vHr4tWyLzqasKauU765/LZmbGpGassdnqSNgaHh1Q2sL4xrLe1/d9X+j1Fcu313cbu8blXsXkQ14awunRsOr0reducuzPd+LFLXGtDK8uHpf2m8ep5gA1vDh3FNbmolHrfHy8OJnOntBOCW5P1NaJRgIBliCwWNkoCi8k09TMVA6DUOeB44U8n7DfEi1R16zx9rbXeOla86odZ2/Rv/Ju0+HVutWdHUwgPV+h+MuHlMx0AqqsTuz54HcBnlfrbJLVTfeGLAnuIsD43PX7mRt411VZ68r5J/cKZZ2XweQltyCUC70eGWhpmNQZwXOnD+msZLiZiGLqnOjziKtMuws+9J2FRf03dVR2XI/HK3WOT0cH4mBe8s9tv1WEANXfYMwDFqy+zl5XL2dz/5O0RjIjieOaua7QQycDQzBwNrXyiE+lVOiMrBlxxU9PAPHhoXBDGr24koQ2p4DrXKAEJGBvb7ZlmmtwQxkWLdXgglg0DL384H1tUan06+aPYNH1ZDwe9r6MwCy+di2rQRUMAO7KwlioFSZ+6nXyNGU1pqJJXqxCIXmmoIY5JvNQz8GVonQ+mQM5IF58kEMuszV2tPxNbanA4jeG2iuKYCBM0dkZyDTUrAdm98OxcCqHBrAQKG/7HoGfIO6ST7VBu9ub0rjGOSbO84smZOBbrxld9yhGFiNDmDQGVFessa2i+cTK+G9rEYy8Ow9ZcVIVs8moQHQQzGgRU9Yq8YzoN7Ap9YqrUfIqxyvMvxVKvky8MsVEwagwOqktsxrQiv7jGcA6rqj+M14Bm36Xe/a3Aa0rgEfDS3vaDJw77zlZKBrpJAPqNLdRmBnQw3BAPaLzJ+1ghnUaHztU0yPHt5TRSESBWoLjAHyhL6ZUsZAaVN3RUtg1qWQDKQO7RSGgY9n0IUjez39iG9F4rtfhnckDJpvRq0XmAzM8tGsT4RlIFVtjm48A9LrwZrkFa3kznuT7OHVfimHGOA1o5HZcosBqwlsnDQapEIzYG5V7QYxIAbvGw8W42EgKS9uM6X55vG4VTOLAfNLrA2hGZjxLyimj4GEbeHb+BUTGwMriDO20gjPwNy4Ste0MH3Bb4bYi8MfMAWVZrAxkGxGPREDNrzDtfF20Bjd0C2f6rxJycGgaC+LPAkDM9JaA+MY0LHRJxJS2NAcVzvHycFAahh7r5HgfxIGrHoqG1VGxUi0r3nLLrPMHJfqcpPKyUBC0QGL1SZiIPXsyaGRsTKtqOjduoeVWpzJnvEuBkVglrSajIHUV4MZsO3ePN2+507gJioXA6l7z6bBEzIwsyPjGEhsbubcFpv6CW5TpgnlZqCZU/gJGbAtOsYzYKkJx3ZeDeZGZuIRvQwsTcrAykWPyyeyYBSg2RbZwaVXZ/5Un4k34MpA6qrBDNpmxhrKer1SLehmZplngfqJxJOBVIeBDKzEMp5vY7EXaqI7JdvFlYHGkqPj1lg2CtbczBIAMwkNDHFlQGfAAWttWsVbdRbqsxkSyAlxZUACzaA1V6mnqwDYCSSxN/JoaYWBiiR7z6F1jz8YWGvvxhfvTQbkY3c+pGJ8S3e+vPc83tCr6CqE2B1AVa7OlABSq2jI+4FGPjDHqw3yWhvxsePt1oh/sqlda6xV6/XKVm9jJsGhkJCQkJCQkJCQkJCQkJCQkJCQkNDT0v8ABHT4CsM0bqIAAAAASUVORK5CYII=;" vertex="1" parent="1">
          <mxGeometry x="640.5" y="430" width="119" height="89.59" as="geometry" />
        </mxCell>
        <mxCell id="HV6iaBlOZlSdFYTbmM4B-13" value="" style="endArrow=classic;html=1;rounded=0;exitX=0.25;exitY=1;exitDx=0;exitDy=0;entryX=1;entryY=0;entryDx=0;entryDy=0;" edge="1" parent="1" source="HV6iaBlOZlSdFYTbmM4B-3" target="HV6iaBlOZlSdFYTbmM4B-5">
          <mxGeometry width="50" height="50" relative="1" as="geometry">
            <mxPoint x="1020" y="410" as="sourcePoint" />
            <mxPoint x="1070" y="360" as="targetPoint" />
          </mxGeometry>
        </mxCell>
        <mxCell id="HV6iaBlOZlSdFYTbmM4B-14" value="" style="endArrow=classic;html=1;rounded=0;exitX=0.75;exitY=1;exitDx=0;exitDy=0;entryX=0.25;entryY=0;entryDx=0;entryDy=0;" edge="1" parent="1" source="HV6iaBlOZlSdFYTbmM4B-3" target="HV6iaBlOZlSdFYTbmM4B-6">
          <mxGeometry width="50" height="50" relative="1" as="geometry">
            <mxPoint x="658" y="408" as="sourcePoint" />
            <mxPoint x="619" y="440" as="targetPoint" />
          </mxGeometry>
        </mxCell>
        <mxCell id="HV6iaBlOZlSdFYTbmM4B-15" value="" style="endArrow=classic;html=1;rounded=0;exitX=0.5;exitY=1;exitDx=0;exitDy=0;entryX=0.5;entryY=0;entryDx=0;entryDy=0;" edge="1" parent="1" source="HV6iaBlOZlSdFYTbmM4B-3" target="HV6iaBlOZlSdFYTbmM4B-7">
          <mxGeometry width="50" height="50" relative="1" as="geometry">
            <mxPoint x="753" y="408" as="sourcePoint" />
            <mxPoint x="831" y="440" as="targetPoint" />
          </mxGeometry>
        </mxCell>
        <mxCell id="HV6iaBlOZlSdFYTbmM4B-16" value="BRONZE LAYER" style="rounded=0;whiteSpace=wrap;html=1;" vertex="1" parent="1">
          <mxGeometry x="480" y="560" width="120" height="210" as="geometry" />
        </mxCell>
        <mxCell id="HV6iaBlOZlSdFYTbmM4B-17" value="SILVER LAYER" style="rounded=0;whiteSpace=wrap;html=1;" vertex="1" parent="1">
          <mxGeometry x="640.5" y="560" width="120" height="210" as="geometry" />
        </mxCell>
        <mxCell id="HV6iaBlOZlSdFYTbmM4B-18" value="GOLD LAYER" style="rounded=0;whiteSpace=wrap;html=1;" vertex="1" parent="1">
          <mxGeometry x="800" y="560" width="120" height="210" as="geometry" />
        </mxCell>
        <mxCell id="HV6iaBlOZlSdFYTbmM4B-19" value="" style="sketch=0;outlineConnect=0;fontColor=#232F3E;gradientColor=none;fillColor=#2E27AD;strokeColor=none;dashed=0;verticalLabelPosition=bottom;verticalAlign=top;align=center;html=1;fontSize=12;fontStyle=0;aspect=fixed;pointerEvents=1;shape=mxgraph.aws4.rds_sql_server_instance;" vertex="1" parent="1">
          <mxGeometry x="1000" y="304.99999999999994" width="78" height="78" as="geometry" />
        </mxCell>
        <mxCell id="HV6iaBlOZlSdFYTbmM4B-20" value="" style="endArrow=classic;html=1;rounded=0;exitX=1;exitY=0.5;exitDx=0;exitDy=0;" edge="1" parent="1" source="HV6iaBlOZlSdFYTbmM4B-3" target="HV6iaBlOZlSdFYTbmM4B-19">
          <mxGeometry width="50" height="50" relative="1" as="geometry">
            <mxPoint x="1040" y="530" as="sourcePoint" />
            <mxPoint x="1090" y="480" as="targetPoint" />
          </mxGeometry>
        </mxCell>
        <mxCell id="HV6iaBlOZlSdFYTbmM4B-21" value="" style="shape=image;verticalLabelPosition=bottom;labelBackgroundColor=default;verticalAlign=top;aspect=fixed;imageAspect=0;image=https://processm.com/wp-content/uploads/2021/10/powerBI-Logo.png;" vertex="1" parent="1">
          <mxGeometry x="1180" y="303.79999999999995" width="280" height="74.2" as="geometry" />
        </mxCell>
        <mxCell id="HV6iaBlOZlSdFYTbmM4B-22" value="" style="endArrow=classic;html=1;rounded=0;entryX=0;entryY=0.5;entryDx=0;entryDy=0;" edge="1" parent="1" source="HV6iaBlOZlSdFYTbmM4B-19" target="HV6iaBlOZlSdFYTbmM4B-21">
          <mxGeometry width="50" height="50" relative="1" as="geometry">
            <mxPoint x="1080" y="340" as="sourcePoint" />
            <mxPoint x="1090" y="480" as="targetPoint" />
          </mxGeometry>
        </mxCell>
      </root>
    </mxGraphModel>
  </diagram>
</mxfile>
